<svg id="Layer_1" viewBox="0 0 24 24" xmlns="http://www.w3.org/2000/svg" data-name="Layer 1"><path d="m19.707 15.707-1.293 1.293 1.293 1.293c.391.391.391 1.023 0 1.414s-1.023.391-1.414 0l-1.293-1.293-1.293 1.293c-.391.391-1.023.391-1.414 0s-.391-1.023 0-1.414l1.293-1.293-1.293-1.293c-.391-.391-.391-1.023 0-1.414s1.023-.391 1.414 0l1.293 1.293 1.293-1.293c.391-.391 1.023-.391 1.414 0s.391 1.023 0 1.414zm4.293 1.293c0 3.859-3.141 7-7 7s-7-3.141-7-7 3.14-7 7-7 7 3.141 7 7zm-2 0c0-2.757-2.243-5-5-5s-5 2.243-5 5 2.243 5 5 5 5-2.243 5-5zm-10.764-6.212c.374-.407.348-1.039-.059-1.413-.366-.338-.818-.559-1.343-.645l-3.375-.438c-.266-.045-.459-.272-.459-.542 0-.413.336-.75.75-.75h2.734c.205 0 .485.216.65.501.277.478.889.643 1.367.364.478-.277.641-.889.364-1.366-.42-.725-1.266-1.499-2.381-1.499h-.484v-1c0-.553-.448-1-1-1s-1 .447-1 1v1h-.25c-1.517 0-2.75 1.233-2.75 2.75 0 1.251.896 2.309 2.166 2.52l3.376.438c.132.022.226.087.281.138.405.375 1.038.348 1.413-.058zm-3.236 1.212h-1.484c-.205 0-.485-.216-.65-.501-.277-.478-.889-.642-1.367-.364-.478.277-.641.889-.364 1.366.42.725 1.266 1.499 2.381 1.499h.484v1c0 .553.448 1 1 1s1-.447 1-1v-2c0-.553-.448-1-1-1zm-.565 9.038-1.095.75-2.105-1.438c-.341-.232-.788-.232-1.129 0l-1.105.756v-16.106c0-1.654 1.346-3 3-3h7.999c1.654 0 3 1.346 3 3.001v2c0 .552.449.999 1.001.999.552 0 .999-.448.999-1.001v-1.999c0-2.757-2.243-5-5-5h-8c-2.757 0-5 2.243-5 5v18c0 .371.205.711.533.885.328.173.725.15 1.031-.06l2.105-1.439 2.106 1.439c.341.233.789.233 1.129 0l1.66-1.137c.456-.312.572-.935.26-1.391-.312-.454-.935-.57-1.39-.26z"/></svg>