<svg id="Layer_1" viewBox="0 0 24 24" xmlns="http://www.w3.org/2000/svg" data-name="Layer 1"><path d="m24 5.646v8.354c0 2.757-2.243 5-5 5h-6v3h4c.552 0 1 .447 1 1s-.448 1-1 1h-10c-.552 0-1-.447-1-1s.448-1 1-1h4v-3h-6c-2.757 0-5-2.243-5-5v-8.354c0-1.22.444-2.395 1.25-3.308.366-.414.997-.454 1.412-.088.414.366.453.998.087 1.412-.483.547-.75 1.252-.75 1.983v8.355c0 1.654 1.346 3 3 3h14c1.654 0 3-1.346 3-3v-8.354c0-.731-.266-1.437-.75-1.983-.366-.414-.326-1.046.087-1.412.415-.366 1.046-.326 1.412.088.807.913 1.25 2.088 1.25 3.308zm-19.142 9.344c.541.074 1.053-.302 1.131-.849.141-.982.541-1.871 1.102-2.636l.666.666c.195.195.452.293.708.293s.512-.098.707-.293c.391-.39.391-1.023 0-1.414l-.645-.646c.731-.508 1.566-.87 2.473-1.021v.909c0 .553.448 1 1 1s1-.447 1-1v-.909c2.562.427 4.638 2.451 5.01 5.05.076.55.596.928 1.131.849.547-.078.927-.585.848-1.132-.559-3.91-3.994-6.858-7.99-6.858s-7.431 2.948-7.99 6.858c-.079.547.301 1.054.848 1.132zm11.142-10.49v-3c0-.827.673-1.5 1.5-1.5s1.5.673 1.5 1.5v3c0 .276-.224.5-.5.5s-.5-.224-.5-.5v-1h-1v1c0 .276-.224.5-.5.5s-.5-.224-.5-.5zm1-3v1h1v-1c0-.276-.224-.5-.5-.5s-.5.224-.5.5zm-7 3.5h.808c.276 0 .5-.224.5-.5s-.224-.5-.5-.5h-.808v-1h.808c.276 0 .5-.224.5-.5s-.224-.5-.5-.5h-.808v-1h.808c.276 0 .5-.224.5-.5s-.224-.5-.5-.5h-.808c-.551 0-1 .449-1 1v3c0 .552.449 1 1 1zm2.5-4h.5v3.5c0 .276.224.5.5.5s.5-.224.5-.5v-3.5h.5c.276 0 .5-.224.5-.5s-.224-.5-.5-.5h-2c-.276 0-.5.224-.5.5s.224.5.5.5zm-7.5 3v-3c0-.551.449-1 1-1h.5c.827 0 1.5.673 1.5 1.5 0 .384-.145.734-.383 1 .238.266.383.616.383 1 0 .827-.673 1.5-1.5 1.5h-.5c-.551 0-1-.448-1-1zm1-2h.5c.276 0 .5-.224.5-.5s-.224-.5-.5-.5h-.5zm0 2h.5c.276 0 .5-.225.5-.5s-.224-.5-.5-.5h-.5zm7.793 7.793-1.277 1.277c-.165-.044-.338-.07-.516-.07-.776 0-1.449.442-1.78 1.088-.215.418.135.912.605.912h2.343c.183 0 .323-.085.438-.196h.006s1.596-1.597 1.596-1.597c.391-.391.391-1.023 0-1.414s-1.023-.391-1.414 0z"/></svg>