<svg id="Layer_1" viewBox="0 0 24 24" xmlns="http://www.w3.org/2000/svg" data-name="Layer 1"><path d="m23.559 11.711-.889-1.433c-.773-1.247-1.897-2.204-3.323-2.795l-.497-.164c-.524-.173-1.09.112-1.263.637-.172.524.113 1.09.638 1.262l.005.002-6.237 2.137-6.318-2.168c.592-.218.948-.876.633-1.461-.257-.488-.859-.679-1.351-.421l-.458.193c-1.354.565-2.397 1.532-3.17 2.778l-.895 1.443c-.477.79-.566 1.741-.245 2.611.311.839.969 1.48 1.805 1.785l-.002 1.212c-.003 2.159 1.372 4.068 3.419 4.75l4.992 1.664c.51.17 1.045.255 1.58.254.536 0 1.072-.084 1.582-.254l5.001-1.667c2.041-.681 3.415-2.584 3.419-4.737v-1.213c.848-.301 1.512-.948 1.826-1.795.32-.869.23-1.82-.252-2.62zm-21.418 1.055.889-1.433c.166-.268.363-.51.574-.74l6.89 2.365-1.535 2.559c-.232.387-.732.583-1.175.434l-5.08-1.693c-.606-.179-.897-.966-.563-1.49zm3.903 7.417c-1.228-.409-2.054-1.555-2.052-2.85v-.539s3.158 1.052 3.158 1.052c1.303.452 2.831-.12 3.523-1.302l.326-.544v5.834l-4.956-1.652zm11.889-.003-4.933 1.645v-5.824l.326.544c.691 1.182 2.223 1.755 3.522 1.303l3.137-1.046v.536c-.003 1.291-.828 2.433-2.052 2.842zm4.002-6.542c-.109.294-.342.52-.64.619l-5.082 1.693c-.431.147-.939-.046-1.173-.434l-1.537-2.562 6.894-2.362c.21.229.407.472.574.741l.882 1.422c.161.266.19.589.082.883zm-15.513-8.573c-.534-.623-.564-1.532-.071-2.188l1.561-2.077c.378-.504.972-.8 1.603-.8h1.608l-1.128 3h4.008l-1.128-3h1.61c.631 0 1.224.296 1.603.8l1.561 2.077c.493.656.464 1.566-.071 2.188l-5.579 5.935 2.064-6h-4.129l2.064 6z"/></svg>