<svg id="Layer_1" viewBox="0 0 24 24" xmlns="http://www.w3.org/2000/svg" data-name="Layer 1"><path d="m21.551 18.862c-1.124-1.124-2.955-1.126-4.081 0l-.014.014-1.943 2.021c-.511.531-.653 1.312-.365 1.989s.95 1.114 1.685 1.114h5.332c.733 0 1.394-.436 1.684-1.109.29-.675.15-1.454-.355-1.986l-1.942-2.042zm-4.324 3.138 1.663-1.729c.344-.338.901-.339 1.229-.012l1.656 1.741h-4.549zm-8.201-19v-2c0-.553.447-1 .999-1s1 .447 1 1v2c0 .553-.447 1-1 1s-1-.447-1-1zm4 0v-2c-.001-.553.447-1 .999-1s1 .447 1 1v2c0 .553-.447 1-1 1s-1-.447-1-1zm-8 0v-2c0-.553.447-1 1-1s1 .447 1 1v2c0 .553-.447 1-1 1s-1-.447-1-1zm7.974 19c0 .553-.447 1-1 1h-11c-.552 0-1-.447-1-1s.447-1 1-1h11c.553 0 1 .447 1 1zm-11.752-11.01c.547-.078.927-.584.85-1.131-.035-.242-.065-.493-.092-.747-.073-.57.405-1.125.982-1.111l14.023.003c.279 0 .537.115.727.323.195.214.287.491.26.781-.235 2.454-.894 4.452-1.957 5.938-.877 1.223-2.359 1.953-3.967 1.953-.553 0-1 .447-1 1s.447 1 1 1c2.251 0 4.341-1.043 5.593-2.789.047-.065.081-.144.127-.211h2.208c2.168 0 4-1.767 4-3.857 0-1.938-1.532-3.143-4-3.143h-.016c-.003-.742-.264-1.465-.767-2.018-.565-.622-1.369-.979-2.259-.979l-13.97-.003c-.84 0-1.646.357-2.21.981-.573.635-.851 1.485-.764 2.338.029.282.062.557.101.822.078.547.582.923 1.131.85zm20.753 1.152c0 .989-.935 1.857-2 1.857h-1.153c.381-.913.685-1.906.888-3h.265c1.327 0 2 .385 2 1.143zm-21.999 1.863c-.038-.587.5-1.073 1.08-.974 2.772.473 3.947 2.629 4.431 4.187.433-1.194 1.38-2.739 3.314-3.187.654-.152 1.245.381 1.169 1.048-.349 3.053-2.875 3.783-4.139 3.899.051.024-.757.032-.733.006-1.504-.107-4.853-.877-5.122-4.979z"/></svg>