<svg id="Layer_1" viewBox="0 0 24 24" xmlns="http://www.w3.org/2000/svg" data-name="Layer 1"><path d="m20 5h-5c-1.2 0-2.266.542-3 1.382-.734-.84-1.8-1.382-3-1.382h-5c-2.206 0-4 1.794-4 4v2c0 2.206 1.794 4 4 4h1.5v2h-1.5c-.552 0-1 .448-1 1s.448 1 1 1h5c.552 0 1-.448 1-1s-.448-1-1-1h-1.5v-2h1.5c1.2 0 2.266-.542 3-1.382.734.84 1.8 1.382 3 1.382h1.5v2h-1.5c-.552 0-1 .448-1 1s.448 1 1 1h5c.552 0 1-.448 1-1s-.448-1-1-1h-1.5v-2h1.5c2.206 0 4-1.794 4-4v-2c0-2.206-1.794-4-4-4zm-11 8h-5c-1.103 0-2-.897-2-2v-2c0-1.103.897-2 2-2h5c1.103 0 2 .897 2 2v2c0 1.103-.897 2-2 2zm13-2c0 1.103-.897 2-2 2h-5c-1.103 0-2-.897-2-2v-2c0-1.103.897-2 2-2h5c1.103 0 2 .897 2 2z"/></svg>