<svg id="Layer_1" viewBox="0 0 24 24" xmlns="http://www.w3.org/2000/svg" data-name="Layer 1"><path d="m24 14.5c0-1.344-.766-2.497-1.878-3.084.62-.433 1.144-.901 1.533-1.314.557-.59.424-1.56-.29-1.947-.595-.322-1.42-.651-2.472-.823.067-.267.107-.544.107-.832 0-1.933-1.567-3.5-3.5-3.5-.353 0-.684.07-1.004.168.154-.904.141-1.68.056-2.255-.099-.674-.795-1.085-1.432-.843-.711.27-1.653.733-2.521 1.459-.515-.909-1.48-1.529-2.6-1.529-1.386 0-2.542.945-2.886 2.223-.345-.139-.719-.223-1.114-.223-1.657 0-3 1.343-3 3 0 .147.019.289.04.43-1.878 1.974-3.039 4.636-3.039 7.57 0 6.065 4.935 11 11 11 2.934 0 5.596-1.161 7.57-3.04.141.021.283.04.43.04 1.657 0 3-1.343 3-3 0-.114-.013-.225-.025-.336 1.193-.558 2.025-1.76 2.025-3.164zm-22-1.5c0-4.963 4.037-9 9-9s9 4.037 9 9-4.037 9-9 9-9-4.037-9-9zm4.207.207c-.391.391-1.023.391-1.414 0s-.391-1.023 0-1.414l5-5c.391-.391 1.023-.391 1.414 0s.391 1.023 0 1.414zm11 1-5 5c-.391.391-1.023.391-1.414 0s-.391-1.023 0-1.414l5-5c.391-.391 1.023-.391 1.414 0s.391 1.023 0 1.414zm-1.5-4.5-8 8c-.391.391-1.023.391-1.414 0s-.391-1.023 0-1.414l8-8c.391-.391 1.023-.391 1.414 0s.391 1.023 0 1.414z"/></svg>