<svg id="Layer_1" viewBox="0 0 24 24" xmlns="http://www.w3.org/2000/svg" data-name="Layer 1"><path d="m.143 11.591c.284-.473.897-.627 1.372-.343l9.861 5.917c.358.216.797.231 1.172.042.49-.251 1.094-.053 1.344.439s.054 1.094-.439 1.344c-.46.234-.957.35-1.453.35-.571 0-1.142-.154-1.652-.46l-9.862-5.917c-.474-.284-.627-.898-.343-1.372zm13.343 9.353-.861.517c-.385.231-.863.231-1.248 0l-9.862-5.917c-.475-.285-1.088-.13-1.372.343-.284.474-.131 1.088.343 1.372l9.861 5.917c.51.306 1.082.459 1.653.459s1.144-.153 1.653-.459l.861-.517c.474-.284.627-.898.343-1.372s-.896-.628-1.372-.343zm9-5.4-2 1.2c-.474.284-.627.898-.343 1.372.286.478.906.625 1.372.343l2-1.2c.474-.284.627-.898.343-1.372s-.897-.628-1.372-.343zm-12.986-10.044c-.828 0-1.5.672-1.5 1.5s.672 1.5 1.5 1.5 1.5-.672 1.5-1.5-.672-1.5-1.5-1.5zm5 1.5c-.828 0-1.5.672-1.5 1.5s.672 1.5 1.5 1.5 1.5-.672 1.5-1.5-.672-1.5-1.5-1.5zm5.5 7v-1.521c0-.768-.83-1.249-1.497-.868-.311.178-.503.509-.503.868v6.521c0 .552-.447 1-1 1s-1-.448-1-1v-4.148c0-.751-.789-1.214-1.442-.888l-.905.543c-.51.306-1.082.458-1.653.458s-1.144-.153-1.653-.458l-9.861-5.918c-.301-.18-.486-.506-.486-.857s.185-.677.485-.857l9.862-5.917c1.02-.611 2.287-.611 3.307 0l9.861 5.917c.301.181.485.506.485.857s-.185.677-.485.857l-1.07.642c-.275.185-.444.492-.444.825v3.943c0 .552-.447 1-1 1s-1-.448-1-1zm1.057-6.268-8.433-5.059c-.385-.23-.863-.23-1.248 0l-8.433 5.059 8.433 5.06c.385.23.863.23 1.248 0z"/></svg>