<svg id="Layer_1" viewBox="0 0 24 24" xmlns="http://www.w3.org/2000/svg" data-name="Layer 1"><path d="m10.541 18.951c1.162.75 2.123 1.03 2.91 1.03 1.4 0 2.253-.886 2.71-1.593 1.025-1.587 1.592-6.76 1.76-8.54l5.893-8.268c.32-.449.216-1.074-.234-1.395-.448-.319-1.073-.217-1.394.234l-5.757 8.078c-1.298.63-6.678 3.313-7.787 5.03-.679 1.049-.766 2.16-.254 3.214.385.79 1.109 1.533 2.154 2.209zm1.995-1.198 2.932-4.421c-.283 1.801-.633 3.424-.987 3.971-.238.371-.663.984-1.945.45zm-2.216-3.139c.362-.56 1.866-1.545 3.565-2.514l-3.035 4.578c-.305-.275-.537-.548-.664-.81-.144-.296-.239-.676.135-1.254zm13.515.535c-.408 1.398-1.08 3.155-1.997 5.223-.977 2.204-3.165 3.628-5.573 3.628h-8.526c-2.411 0-4.599-1.424-5.577-3.628-.917-2.067-1.589-3.824-1.997-5.223-.36-1.233-.127-2.528.641-3.553.761-1.015 1.924-1.597 3.192-1.597h3.003c.553 0 1 .447 1 1s-.447 1-1 1h-3.003c-.633 0-1.213.29-1.592.796-.387.516-.504 1.169-.321 1.793.384 1.313 1.024 2.986 1.905 4.973.657 1.481 2.129 2.438 3.749 2.438h8.527c1.618 0 3.088-.957 3.745-2.438.881-1.986 1.521-3.659 1.905-4.973.303-1.036-.246-2.124-1.248-2.477-.521-.184-.795-.755-.611-1.275.184-.521.758-.791 1.275-.611 2.004.706 3.104 2.869 2.504 4.924z"/></svg>