<svg id="Layer_1" viewBox="0 0 24 24" xmlns="http://www.w3.org/2000/svg" data-name="Layer 1"><path d="m20 16h-13v-1c0-.552-.447-1-1-1s-1 .448-1 1v4c0 2.757 2.243 5 5 5h6c2.757 0 5-2.243 5-5v-2c0-.552-.447-1-1-1zm-1 3c0 1.654-1.346 3-3 3h-6c-1.654 0-3-1.346-3-3v-1h12zm-7-18c0-.552.447-1 1-1h3c2.757 0 5 2.243 5 5v2c0 .552-.447 1-1 1s-1-.448-1-1v-2c0-1.654-1.346-3-3-3h-3c-.553 0-1-.448-1-1zm-1 19c0-.552.447-1 1-1h2c.553 0 1 .448 1 1s-.447 1-1 1h-2c-.553 0-1-.448-1-1zm11.5-10c-.827 0-1.5.673-1.5 1.5v3c0 .276.224.5.5.5s.5-.224.5-.5v-1h1v1c0 .276.224.5.5.5s.5-.224.5-.5v-3c0-.827-.673-1.5-1.5-1.5zm-.5 2.5v-1c0-.276.225-.5.5-.5s.5.224.5.5v1zm-7-1.5v1h.808c.276 0 .5.224.5.5s-.224.5-.5.5h-.808v1h.808c.276 0 .5.224.5.5s-.224.5-.5.5h-.808c-.552 0-1-.449-1-1v-3c0-.551.448-1 1-1h.808c.276 0 .5.224.5.5s-.224.5-.5.5zm3 3.5v-3.5h-.5c-.276 0-.5-.224-.5-.5s.224-.5.5-.5h2c.276 0 .5.224.5.5s-.224.5-.5.5h-.5v3.5c0 .276-.224.5-.5.5s-.5-.224-.5-.5zm-8-3.5v3c0 .551.448 1 1 1h.5c.827 0 1.5-.673 1.5-1.5 0-.384-.145-.734-.383-1 .238-.266.383-.616.383-1 0-.827-.673-1.5-1.5-1.5h-.5c-.552 0-1 .449-1 1zm1 0h.5c.275 0 .5.224.5.5s-.225.5-.5.5h-.5zm0 2h.5c.275 0 .5.224.5.5s-.225.5-.5.5h-.5zm-4.5-2v-.881c.804-.196 1.518-.615 2.071-1.196l.763.439c.471.273 1.088.115 1.366-.368.275-.479.11-1.09-.368-1.366l-.771-.444c.111-.379.189-.771.189-1.185s-.078-.806-.189-1.185l.771-.444c.479-.275.644-.887.368-1.366s-.887-.644-1.366-.368l-.763.439c-.553-.581-1.267-1-2.071-1.196v-.881c0-.55-.447-.998-1-.998s-1 .448-1 1v.881c-.804.196-1.518.615-2.071 1.196l-.763-.439c-.479-.276-1.09-.111-1.366.368-.275.479-.11 1.09.368 1.366l.771.444c-.111.379-.189.771-.189 1.185s.078.806.189 1.185l-.771.444c-.479.275-.644.887-.368 1.366.278.483.896.64 1.366.368l.763-.439c.553.581 1.267 1 2.071 1.196v.881c0 .552.447 1 1 1s1-.448 1-1zm-3.25-5c0-1.241 1.01-2.25 2.25-2.25s2.25 1.009 2.25 2.25-1.01 2.25-2.25 2.25-2.25-1.009-2.25-2.25z"/></svg>