<svg id="Layer_1" viewBox="0 0 24 24" xmlns="http://www.w3.org/2000/svg" data-name="Layer 1"><path d="m23 16.513v-11.513c0-2.757-2.243-5-5-5h-1c-.553 0-1 .448-1 1s.447 1 1 1h1c1.654 0 3 1.346 3 3v11h-4c0-1.97-1.155-3.661-2.814-4.475l.913-1.37c.399-.597.321-1.399-.188-1.908l-.661-.661c-.372-.373-.888-.586-1.414-.586h-1.672c-.526 0-1.042.213-1.414.586l-.661.661c-.508.508-.587 1.311-.188 1.906l.914 1.372c-1.659.814-2.815 2.506-2.815 4.475h-4v-11c0-1.654 1.346-3 3-3h1c.552 0 1-.448 1-1s-.448-1-1-1h-1c-2.757 0-5 2.243-5 5v11.513c-.603.457-1 1.174-1 1.987v.5c0 2.757 2.243 5 5 5h14c2.757 0 5-2.243 5-5v-.5c0-.814-.396-1.531-1-1.987zm-12.213-7.135.377-.377h1.672l.377.377-1.089 1.635c-.083-.013-.164-.013-.247 0l-1.089-1.635zm1.213 3.623c1.654 0 3 1.346 3 3h-6c0-1.654 1.346-3 3-3zm10 6c0 1.654-1.346 3-3 3h-14c-1.654 0-3-1.346-3-3v-.5c0-.276.224-.5.5-.5h19c.275 0 .5.224.5.5zm-6.707-13.294c-.391-.391-.391-1.023 0-1.414l1-1c.391-.391 1.023-.391 1.414 0s.391 1.023 0 1.414l-1 1c-.391.391-1.023.391-1.414 0zm-7.586-2.414 1 1c.391.391.391 1.023 0 1.414s-1.023.391-1.414 0l-1-1c-.391-.391-.391-1.023 0-1.414s1.023-.391 1.414 0zm3.293.707v-1.5c0-.552.447-1 1-1s1 .448 1 1v1.5c0 .552-.447 1-1 1s-1-.448-1-1z"/></svg>