<svg id="Layer_1" viewBox="0 0 24 24" xmlns="http://www.w3.org/2000/svg" data-name="Layer 1"><path d="m23 11h-4v-1.845c0-.801-.313-1.555-.879-2.121l-2.155-2.155c-.566-.566-1.32-.879-2.121-.879h-4.845c-2.206 0-4 1.794-4 4v3h-4c-.553 0-1 .447-1 1s.447 1 1 1h22c.553 0 1-.447 1-1s-.447-1-1-1zm-16-3c0-1.103.897-2 2-2h4.845c.053 0 .103.023.155.031v1.969c0 .552.448 1 1 1h1.969c.009.052.031.102.031.155v1.845h-10zm8 12h-6c-2.206 0-4-1.794-4-4 0-.553.447-1 1-1s1 .447 1 1c0 1.103.897 2 2 2h6c1.103 0 2-.897 2-2 0-.553.447-1 1-1s1 .447 1 1c0 2.206-1.794 4-4 4zm-15-13v-2c0-2.757 2.243-5 5-5h2c.553 0 1 .447 1 1s-.447 1-1 1h-2c-1.654 0-3 1.346-3 3v2c0 .553-.447 1-1 1s-1-.447-1-1zm24-2v2c0 .553-.447 1-1 1s-1-.447-1-1v-2c0-1.654-1.346-3-3-3h-2c-.553 0-1-.447-1-1s.447-1 1-1h2c2.757 0 5 2.243 5 5zm0 12v2c0 2.757-2.243 5-5 5h-2c-.553 0-1-.447-1-1s.447-1 1-1h2c1.654 0 3-1.346 3-3v-2c0-.553.447-1 1-1s1 .447 1 1zm-16 6c0 .553-.447 1-1 1h-2c-2.757 0-5-2.243-5-5v-2c0-.553.447-1 1-1s1 .447 1 1v2c0 1.654 1.346 3 3 3h2c.553 0 1 .447 1 1z"/></svg>