<svg id="Layer_1" viewBox="0 0 24 24" xmlns="http://www.w3.org/2000/svg" data-name="Layer 1"><path d="m19 11c-.552 0-1-.447-1-1v-5c0-1.654-1.346-3-3-3h-10c-1.654 0-3 1.346-3 3v14c0 1.654 1.346 3 3 3h11c.552 0 1 .447 1 1s-.448 1-1 1h-11c-2.757 0-5-2.243-5-5v-14c0-2.757 2.243-5 5-5h10c2.757 0 5 2.243 5 5v5c0 .553-.448 1-1 1zm-13-5h8c.552 0 1-.447 1-1s-.448-1-1-1h-8c-.552 0-1 .447-1 1s.448 1 1 1zm6 3c0-.553-.448-1-1-1h-5c-.552 0-1 .447-1 1s.448 1 1 1h5c.552 0 1-.447 1-1zm-1.328 10.143 1.2-5.976c.103-.58.628-1.167 1.385-1.167s1.226.524 1.346 1.192l1.221 5.947c.091.444-.248.86-.701.86h-.01c-.347 0-.644-.249-.705-.591l-.157-.883h-2.006l-.166.889c-.063.339-.359.585-.704.585-.452 0-.791-.414-.702-.857zm1.94-2.142h1.261l-.638-3.295-.624 3.295zm4.988-5.001c-.442 0-.8.358-.8.8v6.4c0 .442.358.8.8.8s.8-.358.8-.8v-6.4c0-.442-.358-.8-.8-.8zm-9.557 0c1.401 0 2.582 1.147 2.556 2.548-.026 1.358-1.135 2.452-2.5 2.452h-.5v2.2c0 .442-.358.8-.8.8s-.8-.358-.8-.8v-6.4c0-.442.358-.8.8-.8zm.056 1.6h-.5v1.8h.5c.496 0 .9-.404.9-.9s-.404-.9-.9-.9zm15.9.7v3.4c0 1.27-1.03 2.3-2.3 2.3h-1.5c-.442 0-.8-.358-.8-.8v-6.4c0-.442.358-.8.8-.8h1.5c1.27 0 2.3 1.03 2.3 2.3zm-1.6 0c0-.386-.314-.7-.7-.7s-.7 0-.7 0v4.802s.314 0 .7 0 .7-.314.7-.7v-3.4z"/></svg>