<svg id="Layer_1" viewBox="0 0 24 24" xmlns="http://www.w3.org/2000/svg" data-name="Layer 1"><path d="m20 12c0 1.658-.503 3.249-1.455 4.602-.32.455-.947.557-1.394.241-.451-.317-.56-.941-.241-1.394.713-1.013 1.09-2.205 1.09-3.449 0-3.309-2.691-6-6-6s-6 2.691-6 6c0 1.244.377 2.437 1.09 3.449.318.452.21 1.076-.241 1.394-.453.317-1.076.211-1.394-.241-.952-1.353-1.455-2.943-1.455-4.602 0-4.411 3.589-8 8-8s8 3.589 8 8zm-8-12c-6.617 0-12 5.383-12 12 0 2.354.682 4.634 1.973 6.593.306.465.93.586 1.385.285.462-.304.589-.924.285-1.385-1.074-1.632-1.643-3.531-1.643-5.493 0-5.514 4.486-10 10-10s10 4.486 10 10c0 1.945-.56 3.831-1.617 5.454-.302.463-.171 1.082.292 1.384.461.299 1.081.17 1.384-.292 1.27-1.948 1.941-4.212 1.941-6.546 0-6.617-5.383-12-12-12zm6 23c0 .553-.447 1-1 1h-10c-.553 0-1-.447-1-1s.447-1 1-1h4v-6.142c-1.721-.447-3-1.999-3-3.858 0-2.206 1.794-4 4-4s4 1.794 4 4c0 1.859-1.279 3.411-3 3.858v6.142h4c.553 0 1 .447 1 1zm-6-9c1.103 0 2-.897 2-2s-.897-2-2-2-2 .897-2 2 .897 2 2 2z"/></svg>