<svg id="Layer_1" viewBox="0 0 24 24" xmlns="http://www.w3.org/2000/svg" data-name="Layer 1"><path d="m22 5h-10.54c.954-1.063 1.54-2.462 1.54-4 0-.553-.448-1-1-1s-1 .447-1 1c0 2.206-1.794 4-4 4h-5c-.552 0-1 .447-1 1s.448 1 1 1h.618l1.486 12.586c.297 2.517 2.432 4.414 4.965 4.414h5.868c2.534 0 4.668-1.897 4.966-4.414l1.486-12.586h.611c.552 0 1-.447 1-1s-.448-1-1-1zm-16.777 7h5.277c.827 0 1.5.673 1.5 1.5v2c0 .827-.673 1.5-1.5 1.5h-4.687zm12.694 7.352c-.178 1.51-1.459 2.648-2.979 2.648h-5.868c-1.52 0-2.801-1.139-2.979-2.648l-.042-.352h4.451c1.93 0 3.5-1.57 3.5-3.5v-2c0-1.93-1.57-3.5-3.5-3.5h-5.5s-.008.003-.013.003l-.355-3.003h14.743z"/></svg>