<svg id="Layer_1" viewBox="0 0 24 24" xmlns="http://www.w3.org/2000/svg" data-name="Layer 1"><path d="m17.316 8.729c-.403-.378-.423-1.011-.045-1.414.785-.836 1.962-1.316 3.229-1.316s2.445.479 3.229 1.316c.378.403.357 1.036-.045 1.414-.402.377-1.035.358-1.414-.045-.804-.856-2.737-.856-3.541 0-.378.403-1.011.423-1.414.045zm-13.816 12.271c-1.267 0-2.444.479-3.229 1.315-.378.403-.358 1.036.044 1.414.402.377 1.035.359 1.414-.044.805-.857 2.738-.856 3.542 0 .378.403 1.011.422 1.414.045.403-.378.423-1.011.045-1.414-.785-.836-1.962-1.316-3.229-1.316zm17-16c1.381 0 2.5-1.119 2.5-2.5s-1.119-2.5-2.5-2.5-2.5 1.119-2.5 2.5 1.119 2.5 2.5 2.5zm-14.5 12.5c0-1.381-1.119-2.5-2.5-2.5s-2.5 1.119-2.5 2.5 1.119 2.5 2.5 2.5 2.5-1.119 2.5-2.5zm18 2.5v.5c0 1.93-1.57 3.5-3.5 3.5h-10.5c-.43 0-.812-.275-.949-.684-.136-.408.004-.857.348-1.116.381-.287.6-.724.6-1.201v-1c0-1.654 1.346-3 3-3h5v-3.333l-1.16-.924-1.032.823c-.682.542-1.636.543-2.318 0l-.986-.785-.986.785c-.683.542-1.635.542-2.317 0l-1.055-.841-1.575 1.096c-.306.212-.704.238-1.034.065-.33-.172-.537-.514-.537-.886v-5.999h-1.999c-1.654 0-3-1.346-3-3v-.5c0-1.93 1.57-3.5 3.5-3.5h11.5c.552 0 1 .448 1 1s-.448 1-1 1h-8.351c.219.456.351.961.351 1.5v7.586l.068-.047c.661-.492 1.571-.478 2.243.057l1.049.836.986-.785c.682-.542 1.634-.543 2.317 0l.986.785 1.032-.822c.682-.543 1.636-.543 2.318 0l1.624 1.294c.238.19.377.478.377.782v3.815h1c1.654 0 3 1.346 3 3zm-19-16.5c0-.827-.673-1.5-1.5-1.5s-1.5.673-1.5 1.5v.5c0 .551.449 1 1 1h2zm17 16.5c0-.551-.449-1-1-1h-8c-.551 0-1 .449-1 1v1c0 .341-.051.678-.148 1h8.648c.827 0 1.5-.673 1.5-1.5z"/></svg>