<svg id="Layer_1" viewBox="0 0 24 24" xmlns="http://www.w3.org/2000/svg" data-name="Layer 1"><path d="m5 16c0 .553-.448 1-1 1-1.103 0-2 .897-2 2v4c0 .553-.448 1-1 1s-1-.447-1-1v-4c0-2.206 1.794-4 4-4 .552 0 1 .447 1 1zm15-1c-.553 0-1 .447-1 1s.447 1 1 1c1.103 0 2 .897 2 2v4c0 .553.447 1 1 1s1-.447 1-1v-4c0-2.206-1.794-4-4-4zm-3 6h-10c-.552 0-1 .447-1 1s.448 1 1 1h10c.553 0 1-.447 1-1s-.447-1-1-1zm3-16c0 1.673-.706 3.282-1.937 4.415l-1.942 1.786c.56.824.878 1.792.878 2.799 0 2.757-2.243 5-5 5s-5-2.243-5-5c0-2.04 1.237-3.839 3.076-4.607.097-.472.3-.926.625-1.314l2.661-2.771c.383-.397 1.015-.41 1.414-.027.397.383.41 1.016.027 1.414l-2.616 2.721c-.271.327-.262.888.066 1.254.35.408 1.014.442 1.406.078l3.049-2.804c.82-.755 1.291-1.829 1.291-2.944v-4c0-.552.447-1 1-1s1 .448 1 1v4zm-5 9c0-.521-.141-1.026-.394-1.474-.528.34-1.146.506-1.774.472-.799-.044-1.533-.396-2.067-.993-.148-.165-.268-.347-.373-.534-.848.539-1.392 1.481-1.392 2.529 0 1.654 1.346 3 3 3s3-1.346 3-3zm-8-4.5c.552 0 1-.447 1-1v-2.328c0-1.167.412-2.304 1.159-3.201l1.109-1.331c.354-.424.296-1.055-.128-1.408-.426-.354-1.056-.295-1.409.128l-1.11 1.331c-1.046 1.256-1.622 2.848-1.622 4.481v2.328c0 .553.448 1 1 1z"/></svg>